<?xml version="1.0" encoding="utf-8"?>
<!-- Generator: Adobe Illustrator 19.2.1, SVG Export Plug-In . SVG Version: 6.00 Build 0)  -->
<svg version="1.1" id="Capa_1" xmlns="http://www.w3.org/2000/svg" xmlns:xlink="http://www.w3.org/1999/xlink" x="0px" y="0px"
	 viewBox="0 0 525.6 452.5" style="enable-background:new 0 0 525.6 452.5;" xml:space="preserve">
<style type="text/css">
	.st0{fill:#ABABAB;}
</style>
<path class="st0" d="M489.8,93.5c-23.5-28.9-55.7-51.9-95.8-68.6C354.1,8.4,310,0,262.8,0c-47.2,0-91.3,8.4-131.2,24.9
	C91.5,41.6,59.3,64.7,35.8,93.5C12.1,122.7,0,155.1,0,189.7c0,29.9,9.1,58.2,27.1,84.2c16.8,24.3,39.7,45.2,68.2,62.1
	c-1.7,5.5-3.6,10.7-5.6,15.7c-2.8,6.6-5.3,12.1-7.5,16.3c-2.1,4.1-5.1,8.7-8.7,13.7c-3.7,5.1-6.5,8.7-8.4,10.7
	c-2,2.2-5.3,5.8-9.9,10.9c-4.2,4.6-7.1,7.8-8.6,9.6c-0.8,0.7-1.6,1.7-2.8,3.1c-1.3,1.6-2,2.4-2,2.4l-2.1,3.1
	c-0.9,1.4-2.5,3.7-2.5,6.5c0,0.2-0.1,0.4-0.2,0.8c-1,3.3-0.7,5.9,0.1,7.7c1.1,4.5,3.4,8.3,6.7,11.2c3.5,3.1,7.8,4.7,12.3,4.7H58
	l0.4-0.1c12.7-1.6,23.9-3.7,33.5-6.5c49.7-12.7,94-35.8,131.8-68.6c13.4,1.3,26.5,2,39.1,2c47.2,0,91.3-8.4,131.2-24.9
	c40.1-16.7,72.4-39.7,95.8-68.6c23.8-29.2,35.8-61.6,35.8-96.2C525.6,155.1,513.6,122.7,489.8,93.5z M369.2,309.5
	c-32.8,12.8-68.6,19.4-106.4,19.4c-11.3,0-23.5-0.8-36.4-2.2l-19.3-2l-14.6,12.9c-17.8,15.6-37.5,28.8-58.7,39.4
	c4.7-10.5,8.5-21.4,11.5-32.6l9.2-32.6l-29.6-17c-23.7-13.5-42.3-29.7-55.3-48.1c-12.7-18-19.1-37.2-19.1-56.9
	c0-24.2,9.4-47.1,28.1-68.2c19.1-21.5,45.2-38.9,77.8-51.7c32.8-12.9,68.6-19.4,106.4-19.4c37.8,0,73.5,6.5,106.4,19.4
	c32.6,12.8,58.8,30.1,77.8,51.7c18.6,21,28.1,44,28.1,68.2c0,24.2-9.4,47.1-28.1,68.2l0,0C427.9,279.4,401.8,296.8,369.2,309.5z"/>
</svg>
