<?xml version="1.0" encoding="utf-8"?>
<!-- Generator: Adobe Illustrator 19.2.1, SVG Export Plug-In . SVG Version: 6.00 Build 0)  -->
<svg version="1.1" id="Capa_1" xmlns="http://www.w3.org/2000/svg" xmlns:xlink="http://www.w3.org/1999/xlink" x="0px" y="0px"
	 viewBox="0 0 512 454.1" style="enable-background:new 0 0 512 454.1;" xml:space="preserve">
<style type="text/css">
	.st0{fill:#70BBEF;}
	.st1{fill:#9CD7F2;}
	.st2{fill:#71C5DB;}
	.st3{fill:#57ADDD;}
	.st4{fill:#38383F;}
</style>
<polygon class="st0" points="149.3,182.4 249.5,446.6 261.4,446.6 361.6,182.4 "/>
<path class="st1" d="M233.7,437.8c4.2,4.7,9.8,7.6,15.8,8.8L149.3,182.4l-140-44.1C9.9,143-5.2,120.6,233.7,437.8z"/>
<path class="st2" d="M58.9,153.9L9.3,138.2c0.6,4.7-14.5-17.7,224.4,299.6c3.1,3.5,7,6,11.2,7.5L58.9,153.9z"/>
<g>
	<path class="st1" d="M92,29.3l57.3,153L255.5,61.3L94,28.3C93.3,28.6,92.6,29,92,29.3z"/>
	<path class="st1" d="M361.6,182.4L261.4,446.6c6-1.2,11.6-4.1,15.8-8.8c62.1-82.3,225.2-298,225.7-300L361.6,182.4z"/>
	<path class="st1" d="M361.6,182.4l57.3-153c-0.7-0.4-1.3-0.7-2-1L255.5,61.3L361.6,182.4z"/>
</g>
<polygon class="st3" points="149.3,182.4 361.6,182.4 255.5,61.3 "/>
<path class="st0" d="M92,29.3c-3.8,2.1-4.4,3.4-10.3,11C4.4,139.5,8.4,132,9.3,138.2l140,44.1L92,29.3z"/>
<path class="st3" d="M58.9,153.9L93,31.9l-1-2.5c-3.8,2.1-4.4,3.4-10.3,11C4.4,139.5,8.4,132,9.3,138.2L58.9,153.9L58.9,153.9z"/>
<path class="st0" d="M361.6,182.4l141.3-44.5c0.4-2.1-0.2-3.3-1.2-4.6c-70.1-89.9-79.8-103.2-82.8-103.9L361.6,182.4z"/>
<path class="st3" d="M255.5,61.3l161.4-32.9c-3.4-1.5-6.1-1.7-6.2-1.7l0,0L280.6,9.1C239.7,3.6,222,11.9,99.9,26.7
	c-0.2,0-2.8,0.3-5.9,1.6L255.5,61.3z"/>
<path class="st4" d="M420.8,20.4L282.1,1.8c-35-4.7-58.7,1.4-70.9,2.5c-4.1,0.5-6.9,4.3-6.4,8.4c0.5,4.1,4.3,6.9,8.4,6.4
	c12.3-1.1,34.4-6.9,66.9-2.5l95.3,12.8c-7.1,1.5-112.3,22.9-119.4,24.3L136.6,29.3l41.3-5.6c4.1-0.5,6.9-4.3,6.4-8.4
	c-0.5-4.1-4.3-6.9-8.4-6.4L91.2,20.4c0,0,0,0,0,0l-0.1,0c-0.1,0-0.2,0-0.3,0.1c-0.1,0-0.1,0-0.2,0c-0.1,0-0.1,0-0.2,0
	c-0.1,0-0.2,0-0.3,0.1c-0.1,0-0.3,0.1-0.4,0.1c-0.1,0-0.1,0-0.2,0.1c0,0,0,0-0.1,0c-0.1,0-0.2,0.1-0.2,0.1c-0.1,0.1-0.3,0.1-0.4,0.2
	c-0.1,0-0.1,0.1-0.2,0.1c-0.1,0-0.1,0.1-0.2,0.1c-0.1,0-0.1,0.1-0.2,0.1c-3.2,1.9-1.7,2-86.7,110.3c-1.8,2.3-2.1,5.4-0.8,7.9
	c3,5.9-5-5.8,159.2,212.1c2.5,3.3,7.1,3.9,10.4,1.5c3.3-2.5,3.9-7.1,1.5-10.4L27.7,151.7l116.5,36.7c2.8,7.4,88.1,232.4,89.7,236.6
	l-41.1-54.4c-2.5-3.3-7.1-3.9-10.4-1.5c-3.3,2.5-3.9,7.1-1.5,10.4c43,57,47.4,62.9,47.7,63.2c5.4,6.1,12.9,10,20.1,11.2
	c1.1,0.2,13.5,0.2,14.6,0c9.1-1.8,16.7-6.9,20.3-11.6l145.2-192.4c2.5-3.3,1.8-7.9-1.5-10.4c-3.3-2.5-7.9-1.8-10.4,1.5L278.1,425
	c4.4-11.7,86.5-228,89.7-236.6l116.5-36.7l-46.4,61.5c-2.5,3.3-1.8,7.9,1.5,10.4c3.3,2.5,7.9,1.8,10.4-1.5
	c62.3-82.7,58.9-77.6,61.4-82.5c1.3-2.6,1-5.7-0.8-7.9C421.8,18.1,425.6,20.9,420.8,20.4z M345.7,174.9H166.3L256,72.5L345.7,174.9z
	 M19.1,133.4l70.6-90.5l47.8,127.8L19.1,133.4z M103.7,37.8C118.4,40.8,224,62.3,242,66l-89.5,102.1L103.7,37.8z M256.8,439.2h-1.6
	l-94.6-249.4h190.8L256.8,439.2z M359.5,168.1L270,66c11.9-2.4,120-24.4,138.3-28.2L359.5,168.1z M374.5,170.7l47.8-127.8l70.6,90.5
	L374.5,170.7z"/>
</svg>
