<svg version="1.1" id="Layer_1" xmlns="http://www.w3.org/2000/svg" xmlns:xlink="http://www.w3.org/1999/xlink" x="0px" y="0px"
	 width="1000px" height="280px" viewBox="0 0 1000 280" style="enable-background:new 0 0 1000 280;" xml:space="preserve">
<style type="text/css">
<![CDATA[
	.st0{fill:#fff;}
]]>
</style>
<g>
	<path class="st0" d="M58.331,212.087c27.647,0,38.947-18.753,38.947-43.274c0-19.715-10.579-37.023-25.724-39.427
		c13.943-4.087,23.561-16.588,23.561-36.783c0-22.118-11.781-40.87-38.466-40.87H8.326v160.354H58.331z M48.715,117.125H38.618
		V78.418h10.097c11.299,0,15.386,7.934,15.386,19.474C64.101,109.431,60.014,117.125,48.715,117.125z M49.676,185.401H38.618V143.81
		h11.059c11.299,0,16.588,8.896,16.588,20.675C66.264,178.188,60.976,185.401,49.676,185.401z"/>
	<path class="st0" d="M178.899,214.972c23.8,0,45.678-14.906,45.678-49.285V51.733h-30.292V167.13
		c0,15.627-6.251,21.156-15.386,21.156c-9.376,0-15.387-5.529-15.387-21.156V51.733h-30.291v113.954
		C133.222,200.065,155.099,214.972,178.899,214.972z"/>
	<path class="st0" d="M335.717,212.087v-26.686h-43.033l41.351-109.147V51.733h-74.527v26.685h40.389l-40.389,108.186v25.483
		H335.717z"/>
	<path class="st0" d="M447.255,212.087v-26.686h-43.034l41.351-109.147V51.733h-74.527v26.685h40.389l-40.389,108.186v25.483
		H447.255z"/>
	<path class="st0" d="M508.547,212.087v-64.671h14.905c26.445,0,38.226-22.118,38.226-47.842s-11.78-47.841-38.226-47.841h-32.936
		v160.354H508.547z M521.77,131.309h-13.223V67.84h13.223c14.184,0,21.156,13.223,21.156,31.734S535.953,131.309,521.77,131.309z"/>
	<path class="st0" d="M674.658,212.087l-23.561-68.759c9.856-3.605,22.118-15.866,22.118-44.235c0-29.33-15.627-47.36-37.505-47.36
		h-33.656v160.354h18.029v-64.671h14.185l20.916,64.671H674.658z M633.307,131.309h-13.223V67.84h13.223
		c14.185,0,21.156,13.223,21.156,31.734S647.491,131.309,633.307,131.309z"/>
	<path class="st0" d="M779.893,212.087v-16.108h-41.592V138.04h39.909v-16.108h-39.909V67.84h41.592V51.733h-59.622v160.354H779.893
		z"/>
	<path class="st0" d="M849.171,214.972c23.079,0,38.225-17.791,38.225-42.072c0-47.361-49.765-53.611-49.765-84.865
		c0-13.944,8.655-22.599,18.752-22.599c7.933,0,14.905,2.885,20.435,8.896l7.934-13.944c-7.453-7.453-17.551-11.299-28.608-11.299
		c-21.638,0-37.023,16.588-37.023,39.668c0,45.919,50.005,48.563,50.005,85.105c0,14.905-9.135,24.762-20.915,24.762
		c-8.655,0-18.512-4.808-24.282-12.741l-9.135,14.425C823.446,209.683,834.986,214.972,849.171,214.972z"/>
	<path class="st0" d="M954.029,214.972c23.079,0,38.226-17.791,38.226-42.072c0-47.361-49.766-53.611-49.766-84.865
		c0-13.944,8.655-22.599,18.752-22.599c7.934,0,14.905,2.885,20.436,8.896l7.933-13.944c-7.452-7.453-17.55-11.299-28.607-11.299
		c-21.638,0-37.024,16.588-37.024,39.668c0,45.919,50.006,48.563,50.006,85.105c0,14.905-9.136,24.762-20.916,24.762
		c-8.654,0-18.512-4.808-24.281-12.741l-9.135,14.425C928.305,209.683,939.845,214.972,954.029,214.972z"/>
</g>
</svg>
