<?xml version="1.0" encoding="utf-8"?>
<!-- Generator: Adobe Illustrator 19.2.1, SVG Export Plug-In . SVG Version: 6.00 Build 0)  -->
<svg version="1.1" id="Capa_1" xmlns="http://www.w3.org/2000/svg" xmlns:xlink="http://www.w3.org/1999/xlink" x="0px" y="0px"
	 viewBox="0 0 612 478.8" style="enable-background:new 0 0 612 478.8;" xml:space="preserve">
<style type="text/css">
	.st0{fill:#FFFFFF;}
	.st1{fill:#E1BD3E;}
</style>
<path class="st0" d="M516.3,270.9l94.2,193.6c3.8,7.9-0.2,14.3-9,14.3H10.4c-8.8,0-12.8-6.4-9-14.3l94.2-193.6
	c1.5-3.1,5.5-5.6,9-5.6h80.8c2.5,0,5.9,1.6,7.5,3.4c5.5,6.3,11.1,12.5,16.6,18.6c5.3,5.8,10.6,11.7,15.9,17.7h-95.9
	c-3.4,0-7.5,2.5-9,5.6L58.2,439h495.7l-62.4-128.2c-1.5-3.1-5.5-5.6-9-5.6h-96.1c5.3-6,10.6-11.9,15.9-17.7
	c5.6-6.1,11.2-12.3,16.7-18.7c1.6-1.9,5-3.4,7.5-3.4h81C510.8,265.3,514.8,267.9,516.3,270.9z"/>
<path class="st1" d="M292.4,0.6c-81.3,7.7-136.9,86.4-122.7,166.8c14.4,81.6,89.7,106.8,127,198.4c3.4,8.3,15,8.3,18.4,0
	c41.4-101.7,129.5-121.5,129.5-227.3C444.5,57.6,375-7.2,292.4,0.6z M305.9,211.9c-40.4,0-73.2-32.8-73.2-73.2
	c0-40.4,32.8-73.2,73.2-73.2s73.2,32.8,73.2,73.2C379.1,179.1,346.3,211.9,305.9,211.9z"/>
</svg>
