<?xml version="1.0" encoding="utf-8"?>
<!-- Generator: Adobe Illustrator 19.2.1, SVG Export Plug-In . SVG Version: 6.00 Build 0)  -->
<svg version="1.1" id="Capa_1" xmlns="http://www.w3.org/2000/svg" xmlns:xlink="http://www.w3.org/1999/xlink" x="0px" y="0px"
	 viewBox="0 0 424.5 495" style="enable-background:new 0 0 424.5 495;" xml:space="preserve">
<style type="text/css">
	.st0{fill:#FFFFFF;}
</style>
<g>
	<path class="st0" d="M162.8,447c0.8,26.6,22.7,48,49.5,48s48.7-21.4,49.5-48H162.8z"/>
	<path class="st0" d="M0,424.5h424.5v-19.1l-51-51V212.3c0-75.6-49.9-138.4-124.1-156.3l-3.4-0.8V33.8c0-18-15.8-33.8-33.8-33.8
		c-18,0-33.8,15.8-33.8,33.8v21.4l-3.4,0.8C100.9,73.9,51,136.7,51,212.3v142.1l-51,51V424.5z M93,212.3c0-32,12.4-62,34.8-84.5
		c22.4-22.4,52.4-34.8,84.5-34.8s62,12.4,84.5,34.8c22.4,22.4,34.8,52.4,34.8,84.5v170.3H93V212.3z"/>
</g>
</svg>
